<?xml version="1.0" encoding="utf-8"?>
<!-- Generator: Adobe Illustrator 22.0.1, SVG Export Plug-In . SVG Version: 6.00 Build 0)  -->
<svg version="1.1" xmlns="http://www.w3.org/2000/svg" xmlns:xlink="http://www.w3.org/1999/xlink" x="0px" y="0px"
	 viewBox="0 0 17 14" style="enable-background:new 0 0 17 14;" xml:space="preserve">
<style type="text/css">
	.st0{display:none;}
	.st1{display:inline;fill:#32A7E0;}
	.st2{fill:#3B5791;}
</style>
<g id="Layer_1" class="st0">
	<path class="st1" d="M16.3,2.3c-0.6,0.3-1.3,0.4-1.9,0.5c0.7-0.4,1.2-1.1,1.5-1.8c-0.7,0.4-1.4,0.7-2.1,0.8
		c-0.6-0.7-1.5-1.1-2.4-1.1c-1.9,0-3.4,1.5-3.4,3.3c0,0.3,0,0.5,0.1,0.8C5.3,4.7,2.8,3.5,1.1,1.4C0.8,1.9,0.6,2.5,0.6,3.1
		c0,1.1,0.6,2.2,1.5,2.8C1.6,5.8,1,5.7,0.6,5.4v0c0,1.6,1.2,3,2.7,3.3c-0.5,0.1-1,0.2-1.5,0.1c0.4,1.4,1.7,2.3,3.1,2.3
		c-1.2,0.9-2.7,1.4-4.2,1.4c-0.3,0-0.5,0-0.8,0c1.5,1,3.3,1.5,5.1,1.5c6.2,0,9.6-5.1,9.6-9.5c0-0.1,0-0.3,0-0.4
		C15.3,3.6,15.8,3,16.3,2.3z"/>
</g>
<g id="Layer_2">
	<g>
		<path id="Facebook" class="st2" d="M6.7,2.8c0,0.3,0,1.9,0,1.9H5.3V7h1.4v6.9h2.9V7h1.9c0,0,0.2-1.1,0.3-2.3c-0.2,0-2.2,0-2.2,0
			s0-1.3,0-1.6c0-0.2,0.3-0.6,0.6-0.6c0.3,0,1,0,1.6,0c0-0.3,0-1.4,0-2.4c-0.8,0-1.7,0-2.1,0C6.6,0.1,6.7,2.4,6.7,2.8z"/>
	</g>
</g>
</svg>
