<svg xmlns="http://www.w3.org/2000/svg" width="10" height="9" viewBox="0 0 10 9">
    <path fill="#3B3B3B" fill-rule="evenodd" d="M5.635 2.96l2.44 2.452a.859.859 0 0 0 1.218 0 .87.87 0 0 0 0-1.226L5.383.254A.856.856 0 0 0 5.25.146C5.23.133 5.21.124 5.19.113 5.16.097 5.133.079 5.102.066c-.025-.01-.05-.016-.077-.024-.028-.009-.055-.02-.084-.025a.892.892 0 0 0-.133-.013C4.796.004 4.785 0 4.773 0c-.013 0-.026.004-.039.004a.78.78 0 0 0-.129.013c-.03.006-.059.017-.089.027-.024.007-.048.013-.072.022-.033.014-.064.033-.095.05-.018.01-.036.018-.053.03a.854.854 0 0 0-.133.109L.253 4.186a.866.866 0 0 0 0 1.226.86.86 0 0 0 1.219 0L3.91 2.96v5.174c0 .479.386.867.862.867a.864.864 0 0 0 .862-.867V2.96z"/>
</svg>
