<svg xmlns="http://www.w3.org/2000/svg" width="30" height="29" viewBox="0 0 30 29">
    <path fill="#B02626" fill-rule="evenodd" d="M8.619 24.556h18.118v-1.274H8.619v1.274zm0-3.82h18.118v-1.273H8.619v1.273zm0-3.82h18.118v-1.272H8.619v1.272zm0-3.822h6.324v-1.272H8.619v1.272zm0-3.82h6.324V8H8.619v1.272zm0-3.82h6.324V4.18H8.619v1.273zm7.566 7.64h10.552V4.18H16.185v8.914zm12.29 11.526c0 1.982-.834 2.828-2.784 2.828H6.355c.488-.708.738-1.655.738-2.828V1.55h21.381v23.07zm-24.8 2.99c-1.382 0-2.13-.984-2.15-2.99v-9.104h4.043v9.104c.173 2.087-.555 2.99-1.893 2.99zM5.568 0v13.966H0V24.62c0 2.773 1.396 4.28 4.042 4.375L25.691 29C28.51 29 30 27.486 30 24.62V0H5.568z"/>
</svg>
