<svg xmlns="http://www.w3.org/2000/svg" width="30" height="24" viewBox="0 0 30 24">
    <path fill="#CCEAF4" fill-rule="evenodd" d="M29.098 3.176a11.909 11.909 0 0 1-3.418.936A5.962 5.962 0 0 0 28.296.823a11.923 11.923 0 0 1-3.78 1.443A5.947 5.947 0 0 0 20.174.389a5.948 5.948 0 0 0-5.798 7.298A16.903 16.903 0 0 1 2.11 1.477a5.91 5.91 0 0 0-.806 2.988 5.939 5.939 0 0 0 2.648 4.947 5.933 5.933 0 0 1-2.696-.743v.074a5.95 5.95 0 0 0 4.773 5.828 5.965 5.965 0 0 1-2.687.102 5.956 5.956 0 0 0 5.56 4.128 11.95 11.95 0 0 1-7.392 2.544c-.48 0-.954-.028-1.42-.083a16.86 16.86 0 0 0 9.123 2.67c10.947 0 16.933-9.056 16.933-16.91 0-.258-.006-.515-.017-.77a12.079 12.079 0 0 0 2.97-3.076z"/>
</svg>
