<svg xmlns="http://www.w3.org/2000/svg" width="10" height="9" viewBox="0 0 10 9">
    <path fill="#A9A9A9" fill-rule="evenodd" d="M3.911 6.04l-2.44-2.452a.859.859 0 0 0-1.219 0 .87.87 0 0 0 0 1.226l3.912 3.932c.04.04.084.076.131.108.02.013.04.022.06.033.029.016.058.034.088.047.026.01.052.016.078.024.028.009.055.02.084.025a.892.892 0 0 0 .133.013c.012 0 .023.004.035.004.013 0 .026-.004.039-.004a.78.78 0 0 0 .129-.013c.03-.006.059-.017.088-.027.025-.007.05-.013.073-.022.033-.014.064-.033.095-.05.018-.01.036-.018.053-.03a.854.854 0 0 0 .133-.109l3.91-3.931a.866.866 0 0 0 0-1.226.86.86 0 0 0-1.219 0L5.634 6.04V.867A.864.864 0 0 0 4.774 0a.864.864 0 0 0-.862.867V6.04z"/>
</svg>
