<svg xmlns="http://www.w3.org/2000/svg" width="10" height="10" viewBox="0 0 10 10">
    <path fill="#3B3B3B" fill-rule="evenodd" d="M1.668 0C.743 0 0 .747 0 1.668v6.664C0 9.257.747 10 1.668 10h6.664C9.257 10 10 9.253 10 8.332V4.028v2.36L8.333 5.008v2.495a.832.832 0 0 1-.83.831H2.497a.832.832 0 0 1-.831-.83V2.497c0-.46.372-.831.83-.831H5L3.611 0h2.36-4.303zm5.344 1.384a.967.967 0 0 0-.035.033l-2.848 2.89a.834.834 0 0 0 0 1.171l.384.39a.807.807 0 0 0 1.155 0l2.848-2.89a.944.944 0 0 0 .032-.035l.874.886c.319.324.578.215.578-.243V.276A.274.274 0 0 0 9.728 0H6.467c-.456 0-.56.263-.241.587l.786.797z"/>
</svg>
