<svg xmlns="http://www.w3.org/2000/svg" width="17" height="14" viewBox="0 0 17 14">
    <path fill="#32A7E0" fill-rule="evenodd" d="M16.286 2.338a6.756 6.756 0 0 1-1.928.525 3.343 3.343 0 0 0 1.476-1.842 6.756 6.756 0 0 1-2.132.808 3.366 3.366 0 0 0-2.45-1.051c-1.855 0-3.358 1.49-3.358 3.328 0 .261.03.515.087.759a9.558 9.558 0 0 1-6.92-3.478A3.29 3.29 0 0 0 .607 3.06 3.32 3.32 0 0 0 2.1 5.83a3.366 3.366 0 0 1-1.52-.416v.042c0 1.613 1.157 2.958 2.692 3.264a3.388 3.388 0 0 1-1.516.057 3.357 3.357 0 0 0 3.136 2.311 6.772 6.772 0 0 1-4.17 1.425c-.27 0-.537-.015-.8-.046a9.562 9.562 0 0 0 5.146 1.495c6.175 0 9.552-5.072 9.552-9.47 0-.144-.003-.288-.01-.43a6.786 6.786 0 0 0 1.676-1.724z"/>
</svg>
