<svg xmlns="http://www.w3.org/2000/svg" width="9" height="10" viewBox="0 0 9 10">
    <path fill="#FD3D3D" fill-rule="evenodd" d="M6.04 5.635l-2.452 2.44a.859.859 0 0 0 0 1.218.87.87 0 0 0 1.226 0l3.932-3.91a.856.856 0 0 0 .108-.132c.013-.02.022-.04.033-.06.016-.03.034-.058.047-.089.01-.025.016-.05.024-.077.009-.028.02-.055.025-.084a.892.892 0 0 0 .013-.133c0-.012.004-.023.004-.035 0-.013-.004-.026-.004-.039a.78.78 0 0 0-.013-.129c-.006-.03-.017-.059-.027-.089-.007-.024-.013-.048-.022-.072-.014-.033-.033-.064-.05-.095-.01-.018-.018-.036-.03-.053a.854.854 0 0 0-.109-.133L4.814.253a.866.866 0 0 0-1.226 0 .86.86 0 0 0 0 1.219L6.04 3.91H.867A.864.864 0 0 0 0 4.773c0 .476.388.862.867.862H6.04z"/>
</svg>
