<svg xmlns="http://www.w3.org/2000/svg" width="10" height="11" viewBox="0 0 10 11">
    <path fill="#F7CE40" fill-rule="evenodd" d="M6.314 6.362L3.86 8.802a.859.859 0 0 0 0 1.218.87.87 0 0 0 1.225 0L9.02 6.11a.856.856 0 0 0 .108-.132c.013-.02.022-.04.033-.06.016-.03.034-.058.047-.089.01-.025.016-.05.024-.077.009-.028.02-.055.025-.084a.892.892 0 0 0 .013-.133c0-.012.004-.023.004-.035 0-.013-.004-.026-.004-.039a.78.78 0 0 0-.013-.129c-.006-.03-.017-.059-.027-.088-.007-.025-.013-.05-.022-.073-.014-.033-.033-.064-.05-.095-.01-.018-.018-.036-.03-.053a.854.854 0 0 0-.11-.133L5.088.98a.866.866 0 0 0-1.226 0 .86.86 0 0 0 0 1.219l2.453 2.439H1.14a.864.864 0 0 0-.867.862c0 .476.388.862.867.862h5.174z"/>
</svg>
